<?xml version="1.0" encoding="UTF-8"?>
<svg version="1.1" xmlns="http://www.w3.org/2000/svg" width="304" height="166">
<path d="M0 0 C6.14798282 0.63068752 11.92133083 1.86995831 17.890625 3.44921875 C19.3273909 3.82311234 19.3273909 3.82311234 20.79318237 4.20455933 C23.94684143 5.02700201 27.09843573 5.85706948 30.25 6.6875 C32.46201362 7.26643618 34.67409157 7.84512666 36.88623047 8.42358398 C55.49460608 13.29996702 74.07236521 18.29128137 92.63769531 23.32885742 C94.69851864 23.88738811 96.7593896 24.44574307 98.8203125 25.00390625 C99.79274902 25.2675145 100.76518555 25.53112274 101.76708984 25.80271912 C108.90044816 27.7270881 116.05701897 29.53134508 123.24169922 31.25366211 C126 32 126 32 127 33 C127.09527037 34.34072817 127.1218877 35.68642503 127.12025452 37.03053284 C127.12231651 38.33258163 127.12231651 38.33258163 127.12442017 39.66093445 C127.11902725 41.10023064 127.11902725 41.10023064 127.11352539 42.56860352 C127.11367142 43.57336731 127.11381744 44.5781311 127.1139679 45.61334229 C127.1132683 48.95188517 127.10547374 52.29037305 127.09765625 55.62890625 C127.09579224 57.93676218 127.09436826 60.24461851 127.09336853 62.55247498 C127.08954204 68.64017826 127.07971065 74.72785786 127.06866455 80.81555176 C127.05845323 87.02221354 127.05387151 93.22887913 127.04882812 99.43554688 C127.0380885 111.62370835 127.02101052 123.81185221 127 136 C125.60948929 136.41953697 125.60948929 136.41953697 124.19088745 136.84754944 C120.68126326 137.90678729 117.17209831 138.96753994 113.66305542 140.02870178 C112.15743886 140.48379301 110.65170551 140.93849808 109.14584351 141.39277649 C99.4428027 144.32027512 89.76760285 147.3156093 80.125 150.4375 C78.37228035 151.00436775 78.37228035 151.00436775 76.58415222 151.58268738 C75.00142265 152.09476494 75.00142265 152.09476494 73.38671875 152.6171875 C65.3737449 155.2071724 57.35165468 157.76794363 49.32244873 160.30715942 C47.74141298 160.80789155 46.16087981 161.3102135 44.58087158 161.81417847 C42.37680466 162.51694184 40.17107465 163.21422111 37.96484375 163.91015625 C37.30370071 164.12217682 36.64255768 164.33419739 35.96138 164.55264282 C33.17734367 165.42503797 30.93962122 166 28 166 C28 160.39 28 154.78 28 149 C35.10945631 146.78598246 42.2209235 144.57854013 49.33409119 142.3764801 C54.02814954 140.9227033 58.72087614 139.46471996 63.41259766 138.00341797 C69.27469482 136.17776142 75.13862703 134.35809301 81.00354004 132.54150391 C83.37761407 131.80505645 85.75106878 131.06660951 88.12390137 130.32617188 C91.49896325 129.27338516 94.87615884 128.22772692 98.25390625 127.18359375 C99.27881668 126.86212875 100.30372711 126.54066376 101.35969543 126.2094574 C102.30777573 125.91789261 103.25585602 125.62632782 104.23266602 125.32592773 C105.06008804 125.0688353 105.88751007 124.81174286 106.74000549 124.54685974 C109 124 109 124 113 124 C113 97.93 113 71.86 113 45 C109.37 44.34 105.74 43.68 102 43 C99.51913547 42.42540169 97.04453585 41.82258775 94.5793457 41.18408203 C93.92069016 41.01465088 93.26203461 40.84521973 92.5834198 40.6706543 C90.44657435 40.12003791 88.31119209 39.56396393 86.17578125 39.0078125 C84.66050875 38.6163285 83.14514114 38.22521248 81.62968445 37.83444214 C77.66155444 36.81028274 73.69462214 35.78156112 69.72796631 34.75170898 C64.94883902 33.51173226 60.16840981 32.27678696 55.38807201 31.04148674 C51.65939311 30.07790566 47.93092859 29.11352738 44.20320129 28.14627075 C34.81466564 25.71238226 25.41203337 23.34155116 16 21 C16 28.92 16 36.84 16 45 C13.545625 45.020625 11.09125 45.04125 8.5625 45.0625 C7.4014978 45.07615601 7.4014978 45.07615601 6.21704102 45.09008789 C4.47778283 45.09724913 2.73854696 45.05024702 1 45 C0 44 0 44 -0.12025452 42.20933533 C-0.11803391 41.42990067 -0.11581329 40.650466 -0.11352539 39.84741211 C-0.11341209 38.52615578 -0.11341209 38.52615578 -0.11329651 37.1782074 C-0.10555458 35.74227989 -0.10555458 35.74227989 -0.09765625 34.27734375 C-0.0962413 33.30213272 -0.09482635 32.32692169 -0.09336853 31.32215881 C-0.08775133 28.19390857 -0.07519593 25.06572877 -0.0625 21.9375 C-0.05748722 19.82226666 -0.05292393 17.70703219 -0.04882812 15.59179688 C-0.03777631 10.39450704 -0.02102146 5.19725855 0 0 Z " fill="#3E3E40" transform="translate(177,0)"/>
<path d="M0 0 C6.92300657 5.86950557 10.55337643 12.58251406 11.30078125 21.6484375 C11.33732743 33.27012301 10.32458861 40.46825179 2.19140625 49.05078125 C-2.8271961 53.51474306 -8.43511026 55.63623574 -15.0625 56.3125 C-21.52104279 55.79991724 -27.60895423 53.59403051 -33 50 C-33.33 68.15 -33.66 86.3 -34 105 C-39.28 105 -44.56 105 -50 105 C-50 69.03 -50 33.06 -50 -4 C-45.05 -4 -40.1 -4 -35 -4 C-34.34 -2.35 -33.68 -0.7 -33 1 C-32.154375 0.38125 -31.30875 -0.2375 -30.4375 -0.875 C-20.39508628 -7.47630692 -9.70780537 -6.29882559 0 0 Z M-31.375 14.5625 C-35.01325176 20.01987764 -34.6877836 25.58068643 -34 32 C-32.51332871 35.56801111 -30.47617026 38.08396982 -27.13671875 40.15625 C-22.34655329 42.04779614 -16.8289978 41.75545561 -12.125 39.8125 C-8.5671789 36.77788788 -5.5624762 33.7810477 -5 29 C-4.51300972 22.54737877 -5.76028276 17.76231793 -9.875 12.6875 C-12.9016036 10.28402067 -15.54901333 9.1909193 -19.375 8.6875 C-24.33954934 9.27851778 -27.97311086 10.89204067 -31.375 14.5625 Z " fill="#3E3E40" transform="translate(50,61)"/>
<path d="M0 0 C0.70253906 0.00386719 1.40507812 0.00773437 2.12890625 0.01171875 C2.83144531 0.00785156 3.53398437 0.00398438 4.2578125 0 C9.50229247 0.01010497 9.50229247 0.01010497 10.62890625 1.13671875 C10.76440438 3.82705216 10.83950065 6.49532036 10.875 9.1875 C10.9079466 10.85221864 10.9411581 12.51693205 10.97460938 14.18164062 C11.02198846 16.81498507 11.06639267 19.44830955 11.10571289 22.08178711 C11.14547468 24.61725578 11.19701968 27.15227791 11.25 29.6875 C11.25841415 30.47304764 11.26682831 31.25859528 11.27549744 32.06794739 C11.38036412 37.41457016 11.38036412 37.41457016 13.62890625 42.13671875 C17.89460759 45.0263874 22.6761692 44.65848197 27.62890625 44.13671875 C30.51363029 42.9347504 31.96916076 42.092187 33.73022461 39.54174805 C35.03617481 36.04679683 34.96721911 32.59053144 35.0078125 28.90625 C35.02480698 28.11522385 35.04180145 27.32419769 35.05931091 26.50920105 C35.11233438 23.98928742 35.15270834 21.46938991 35.19140625 18.94921875 C35.2353013 16.41841707 35.28193106 13.8877441 35.33421326 11.35710144 C35.36623236 9.78356103 35.39310304 8.20990615 35.41444397 6.63618469 C35.51713276 1.24849224 35.51713276 1.24849224 36.62890625 0.13671875 C41.57890625 0.13671875 46.52890625 0.13671875 51.62890625 0.13671875 C51.62890625 36.10671875 51.62890625 72.07671875 51.62890625 109.13671875 C46.34890625 109.13671875 41.06890625 109.13671875 35.62890625 109.13671875 C35.29890625 91.31671875 34.96890625 73.49671875 34.62890625 55.13671875 C31.16390625 57.11671875 31.16390625 57.11671875 27.62890625 59.13671875 C20.37991961 61.9427781 12.56197606 59.80507671 5.62890625 57.13671875 C-0.58267255 54.20672875 -3.11762778 49.41230726 -5.37109375 43.13671875 C-6.2691762 38.01824353 -6.51835261 33.01554247 -6.50390625 27.83203125 C-6.50486298 27.06744598 -6.5058197 26.30286072 -6.50680542 25.5151062 C-6.50748141 23.91339027 -6.50566796 22.3116715 -6.50146484 20.70996094 C-6.49606362 18.24798553 -6.50145208 15.78618888 -6.5078125 13.32421875 C-6.50715248 11.76432251 -6.50587291 10.20442639 -6.50390625 8.64453125 C-6.50593048 7.90606964 -6.50795471 7.16760803 -6.51004028 6.4067688 C-6.48133389 0.23177558 -6.19159322 0.01192985 0 0 Z " fill="#3F3F41" transform="translate(141.37109375,56.86328125)"/>
<path d="M0 0 C2.5 1.6875 2.5 1.6875 4 3 C4.33 1.68 4.66 0.36 5 -1 C10.61 -1 16.22 -1 22 -1 C22 17.81 22 36.62 22 56 C16.39 56 10.78 56 5 56 C4.505 54.02 4.505 54.02 4 52 C3.175 52.61875 2.35 53.2375 1.5 53.875 C-4.63920859 57.94854546 -11.9184647 58.94518428 -19.12109375 57.60546875 C-26.40833848 55.64789001 -32.31652944 51.15457426 -36.41796875 44.8046875 C-40.85837201 36.11624503 -41.52563188 25.68153237 -39.3515625 16.16015625 C-35.98296195 7.96898653 -29.9429586 1.74667858 -22 -2 C-14.33006015 -4.33705734 -7.14891279 -3.32794216 0 0 Z M-19.44140625 15.43359375 C-23.25746537 19.79325104 -24.3104095 23.09858147 -24.21484375 28.875 C-23.72393894 33.73049482 -21.97659039 37.09486744 -18.4375 40.375 C-13.68303193 43.54464538 -9.63293078 43.62299695 -4 43 C0.54584968 40.76840107 2.77245902 38.49326838 5 34 C5.75483863 28.56652192 6.31191917 22.17967159 3.25 17.375 C2.5075 16.59125 1.765 15.8075 1 15 C0.443125 14.401875 -0.11375 13.80375 -0.6875 13.1875 C-7.21897004 9.83350187 -14.08726362 10.10847086 -19.44140625 15.43359375 Z " fill="#3E3E40" transform="translate(106,59)"/>
<path d="M0 0 C2.47923801 -0.02685095 4.9581884 -0.04676547 7.4375 -0.0625 C8.14455078 -0.07087891 8.85160156 -0.07925781 9.58007812 -0.08789062 C11.38693559 -0.09653588 13.19387603 -0.05220011 15 0 C17.03071806 2.03071806 16.18506847 6.22198401 16.2109375 9.015625 C16.23901733 10.67579092 16.26768187 12.33594703 16.296875 13.99609375 C16.33807452 16.62060151 16.37494895 19.24492844 16.40136719 21.86962891 C16.42903973 24.39784945 16.47492424 26.92522981 16.5234375 29.453125 C16.52669037 30.23351135 16.52994324 31.01389771 16.53329468 31.81793213 C16.63548992 36.36534085 17.16088623 39.39005858 20 43 C22.68567297 44.34283649 24.87746853 44.24287519 27.875 44.3125 C28.92429688 44.34988281 29.97359375 44.38726562 31.0546875 44.42578125 C34.69228932 43.89992104 35.77861189 42.86714047 38 40 C39.24250045 36.27249864 39.21262914 32.75347974 39.28125 28.8671875 C39.29965942 28.0747464 39.31806885 27.2823053 39.33703613 26.46585083 C39.41573578 23.07453923 39.48365914 19.68303282 39.55224609 16.29150391 C39.6038356 13.81662763 39.66111942 11.34192925 39.71875 8.8671875 C39.73232544 8.09430389 39.74590088 7.32142029 39.7598877 6.52511597 C39.88714666 1.11285334 39.88714666 1.11285334 41 0 C43.51136104 -0.09975032 45.98903415 -0.13882183 48.5 -0.125 C49.20253906 -0.12886719 49.90507812 -0.13273437 50.62890625 -0.13671875 C55.87338622 -0.12661378 55.87338622 -0.12661378 57 1 C57.11354648 3.48848084 57.16418518 5.94808449 57.16796875 8.4375 C57.17296135 9.56865234 57.17296135 9.56865234 57.17805481 10.72265625 C57.18313141 12.32665394 57.18546291 13.93066225 57.18530273 15.53466797 C57.18746622 17.96209859 57.20554902 20.38905755 57.22460938 22.81640625 C57.3029502 43.97376044 57.3029502 43.97376044 49.5703125 52.59375 C43.66961641 58.35328112 36.19566889 60.0306858 28.125 60.4375 C19.20686867 60.09613612 10.55898428 57.69912049 4.3671875 51.07421875 C0.19481543 44.74413427 -0.42306781 39.54446789 -0.29296875 32.12890625 C-0.28872391 31.206577 -0.28447906 30.28424774 -0.28010559 29.33396912 C-0.26341364 26.40983965 -0.22577938 23.48641851 -0.1875 20.5625 C-0.17244089 18.57097355 -0.15875464 16.57943621 -0.14648438 14.58789062 C-0.11354122 9.72499062 -0.06182499 4.8626151 0 0 Z " fill="#05A97B" transform="translate(214,57)"/>
<path d="M0 0 C0.70253906 0.00386719 1.40507812 0.00773437 2.12890625 0.01171875 C2.83144531 0.00785156 3.53398437 0.00398438 4.2578125 0 C9.50229247 0.01010497 9.50229247 0.01010497 10.62890625 1.13671875 C10.76440438 3.82705216 10.83950065 6.49532036 10.875 9.1875 C10.9079466 10.85221864 10.9411581 12.51693205 10.97460938 14.18164062 C11.02198846 16.81498507 11.06639267 19.44830955 11.10571289 22.08178711 C11.14547468 24.61725578 11.19701968 27.15227791 11.25 29.6875 C11.25841415 30.47304764 11.26682831 31.25859528 11.27549744 32.06794739 C11.38036412 37.41457016 11.38036412 37.41457016 13.62890625 42.13671875 C17.89460759 45.0263874 22.6761692 44.65848197 27.62890625 44.13671875 C30.51363029 42.9347504 31.96916076 42.092187 33.73022461 39.54174805 C35.03617481 36.04679683 34.96721911 32.59053144 35.0078125 28.90625 C35.02480698 28.11522385 35.04180145 27.32419769 35.05931091 26.50920105 C35.11233438 23.98928742 35.15270834 21.46938991 35.19140625 18.94921875 C35.2353013 16.41841707 35.28193106 13.8877441 35.33421326 11.35710144 C35.36623236 9.78356103 35.39310304 8.20990615 35.41444397 6.63618469 C35.51713276 1.24849224 35.51713276 1.24849224 36.62890625 0.13671875 C39.15940027 0.06358308 41.66195462 0.04424348 44.19140625 0.07421875 C45.2577832 0.08098633 45.2577832 0.08098633 46.34570312 0.08789062 C48.10680638 0.09971011 49.86786661 0.11764612 51.62890625 0.13671875 C51.62890625 0.79671875 51.62890625 1.45671875 51.62890625 2.13671875 C47.00890625 2.13671875 42.38890625 2.13671875 37.62890625 2.13671875 C37.66371094 4.43769531 37.69851562 6.73867188 37.734375 9.109375 C37.75782206 11.35667685 37.77600919 13.60396468 37.79370117 15.85131836 C37.8087173 17.40411555 37.82913653 18.95687084 37.85522461 20.50952148 C37.89192698 22.75124499 37.90870412 24.99240414 37.921875 27.234375 C37.93735886 27.92008072 37.95284271 28.60578644 37.96879578 29.31227112 C37.97053741 34.3863587 36.92241111 37.7090516 34.62890625 42.13671875 C30.56138402 46.09994554 27.80558067 46.93137211 22.31640625 47.44921875 C17.77501933 47.06435545 15.07045085 46.09397103 11.62890625 43.13671875 C7.38176143 35.3682691 8.2962048 26.73008748 8.44140625 18.13671875 C8.45647652 16.58334627 8.47016079 15.02995969 8.48242188 13.4765625 C8.51525128 9.6962626 8.56690371 5.91664812 8.62890625 2.13671875 C4.33890625 2.13671875 0.04890625 2.13671875 -4.37109375 2.13671875 C-4.30178142 7.38415965 -4.21360832 12.63083651 -4.10864258 17.87768555 C-4.07557737 19.65917418 -4.04748933 21.44076293 -4.0246582 23.22241211 C-3.99077068 25.79714261 -3.93844232 28.37097055 -3.8828125 30.9453125 C-3.87642258 31.73006454 -3.87003265 32.51481659 -3.8634491 33.323349 C-3.6646969 40.95556477 -1.68076571 47.77482204 2.62890625 54.13671875 C-0.37109375 53.13671875 -0.37109375 53.13671875 -1.72265625 51.09765625 C-2.14289063 50.24429688 -2.563125 49.3909375 -2.99609375 48.51171875 C-3.42148438 47.67382812 -3.846875 46.8359375 -4.28515625 45.97265625 C-6.52369661 40.12668394 -6.52115793 34.02212241 -6.50390625 27.83203125 C-6.50486298 27.06744598 -6.5058197 26.30286072 -6.50680542 25.5151062 C-6.50748141 23.91339027 -6.50566796 22.3116715 -6.50146484 20.70996094 C-6.49606362 18.24798553 -6.50145208 15.78618888 -6.5078125 13.32421875 C-6.50715248 11.76432251 -6.50587291 10.20442639 -6.50390625 8.64453125 C-6.50593048 7.90606964 -6.50795471 7.16760803 -6.51004028 6.4067688 C-6.48133389 0.23177558 -6.19159322 0.01192985 0 0 Z " fill="#2F2F30" transform="translate(141.37109375,56.86328125)"/>
<path d="M0 0 C4.40494334 0.50779208 8.65066522 1.0303885 12.9375 2.19140625 C13.76894531 2.41376953 14.60039062 2.63613281 15.45703125 2.86523438 C16.71580078 3.21038086 16.71580078 3.21038086 18 3.5625 C18.87011719 3.79646484 19.74023438 4.03042969 20.63671875 4.27148438 C22.75914728 4.84290744 24.88013594 5.41914957 27 6 C27 6.66 27 7.32 27 8 C24.33316351 7.37571782 21.66652933 6.75059174 19 6.125 C18.25621094 5.95097656 17.51242188 5.77695313 16.74609375 5.59765625 C16.00488281 5.42363281 15.26367188 5.24960938 14.5 5.0703125 C13.8296875 4.91320801 13.159375 4.75610352 12.46875 4.59423828 C8.97344808 3.75290473 5.48779083 2.87194771 2 2 C2 15.53 2 29.06 2 43 C6.62 43 11.24 43 16 43 C16 43.66 16 44.32 16 45 C13.52076199 45.02685095 11.0418116 45.04676547 8.5625 45.0625 C7.85544922 45.07087891 7.14839844 45.07925781 6.41992188 45.08789062 C4.61306441 45.09653588 2.80612397 45.05220011 1 45 C0 44 0 44 -0.12025452 42.20933533 C-0.11803391 41.42990067 -0.11581329 40.650466 -0.11352539 39.84741211 C-0.11341209 38.52615578 -0.11341209 38.52615578 -0.11329651 37.1782074 C-0.10555458 35.74227989 -0.10555458 35.74227989 -0.09765625 34.27734375 C-0.0962413 33.30213272 -0.09482635 32.32692169 -0.09336853 31.32215881 C-0.08775133 28.19390857 -0.07519593 25.06572877 -0.0625 21.9375 C-0.05748722 19.82226666 -0.05292393 17.70703219 -0.04882812 15.59179688 C-0.03777631 10.39450704 -0.02102146 5.19725855 0 0 Z " fill="#2F2F31" transform="translate(177,0)"/>
<path d="M0 0 C2.47923801 -0.02685095 4.9581884 -0.04676547 7.4375 -0.0625 C8.14455078 -0.07087891 8.85160156 -0.07925781 9.58007812 -0.08789062 C11.38693559 -0.09653588 13.19387603 -0.05220011 15 0 C16 1 16 1 16.11352539 4.51000977 C16.11336626 6.07048422 16.10767142 7.63096393 16.09765625 9.19140625 C16.0962413 10.01124496 16.09482635 10.83108368 16.09336853 11.67576599 C16.08775289 14.30471382 16.07519779 16.93357773 16.0625 19.5625 C16.05748701 21.34049357 16.05292376 23.11848846 16.04882812 24.89648438 C16.03777839 29.26435545 16.02050331 33.63216348 16 38 C15.67 38 15.34 38 15 38 C14.505 20.675 14.505 20.675 14 3 C9.71 2.67 5.42 2.34 1 2 C1 14.87 1 27.74 1 41 C1.66 41 2.32 41 3 41 C3.33 43.64 3.66 46.28 4 49 C1.05818422 45.29075401 -0.12774765 42.53996631 -0.11352539 37.80395508 C-0.11344986 36.96331009 -0.11337433 36.1226651 -0.11329651 35.25654602 C-0.10813522 34.35333115 -0.10297394 33.45011627 -0.09765625 32.51953125 C-0.0962413 31.59154221 -0.09482635 30.66355316 -0.09336853 29.70744324 C-0.08776937 26.74242942 -0.07521704 23.77749101 -0.0625 20.8125 C-0.05748489 18.80273547 -0.052922 16.79296975 -0.04882812 14.78320312 C-0.03780021 9.85543968 -0.02053617 4.92773263 0 0 Z " fill="#1D9874" transform="translate(214,57)"/>
<path d="M0 0 C1.32 0 2.64 0 4 0 C4 17.82 4 35.64 4 54 C3.67 54 3.34 54 3 54 C2.22464855 47.72111173 1.80877932 41.5454137 1.68359375 35.22265625 C1.66281265 34.33009628 1.64203156 33.43753632 1.62062073 32.51792908 C1.55588494 29.69952159 1.49662663 26.88103014 1.4375 24.0625 C1.39423743 22.1451742 1.35062086 20.22785635 1.30664062 18.31054688 C1 4.78113453 1 4.78113453 1 2 C0.67 1.34 0.34 0.68 0 0 Z " fill="#333338" transform="translate(124,58)"/>
<path d="M0 0 C0.66 0.33 1.32 0.66 2 1 C2 2.32 2 3.64 2 5 C7.28 5 12.56 5 18 5 C18 5.66 18 6.32 18 7 C12.39 7 6.78 7 1 7 C0.67 5.68 0.34 4.36 0 3 C-0.825 3.61875 -1.65 4.2375 -2.5 4.875 C-8.122746 8.60585734 -14.33043198 9.49404208 -21 9 C-24.4375 8 -24.4375 8 -27 7 C-27 6.67 -27 6.34 -27 6 C-25.98679687 6.02320312 -24.97359375 6.04640625 -23.9296875 6.0703125 C-22.57813242 6.0890841 -21.22656931 6.1072828 -19.875 6.125 C-19.20984375 6.14175781 -18.5446875 6.15851563 -17.859375 6.17578125 C-13.49006453 6.21861763 -10.06103916 5.57663873 -6 4 C-4.67088318 3.65023242 -3.33917261 3.30903983 -2 3 C-2 2.34 -2 1.68 -2 1 C-1.34 0.67 -0.68 0.34 0 0 Z " fill="#2E2E30" transform="translate(110,108)"/>
<path d="M0 0 C4.95 0 9.9 0 15 0 C15.66 1.65 16.32 3.3 17 5 C17.845625 4.360625 18.69125 3.72125 19.5625 3.0625 C22.90728565 0.8033727 25.97396992 0.32208241 30 0 C28.66144904 2.67710191 27.27941912 2.95129094 24.5625 4.125 C23.75941406 4.47820313 22.95632812 4.83140625 22.12890625 5.1953125 C20 6 20 6 18 6 C18 6.66 18 7.32 18 8 C16.68 8.33 15.36 8.66 14 9 C14 6.69 14 4.38 14 2 C13.01 2.33 12.02 2.66 11 3 C9.10047654 2.91478259 7.20336427 2.76270916 5.3125 2.5625 C4.31863281 2.46066406 3.32476562 2.35882813 2.30078125 2.25390625 C1.54152344 2.17011719 0.78226562 2.08632813 0 2 C0 1.34 0 0.68 0 0 Z " fill="#2E2E30" transform="translate(0,57)"/>
<path d="M0 0 C-0.33 0.99 -0.66 1.98 -1 3 C-2.65 3 -4.3 3 -6 3 C-6 7.62 -6 12.24 -6 17 C-4.22625 16.34 -2.4525 15.68 -0.625 15 C4.75 13 4.75 13 7 13 C7 13.66 7 14.32 7 15 C5.06441401 15.67220351 3.12645628 16.33758077 1.1875 17 C0.10855469 17.37125 -0.97039062 17.7425 -2.08203125 18.125 C-5 19 -5 19 -8 19 C-8 13.39 -8 7.78 -8 2 C-2 0 -2 0 0 0 Z " fill="#2D2D2E" transform="translate(213,147)"/>
<path d="M0 0 C9.73202452 2.10914063 19.43259496 4.21828752 29 7 C28.67 7.99 28.34 8.98 28 10 C27.48695313 9.84144531 26.97390625 9.68289062 26.4453125 9.51953125 C17.67685235 6.8476604 8.83633815 4.43528709 0 2 C0 1.34 0 0.68 0 0 Z " fill="#313132" transform="translate(274,25)"/>
<path d="M0 0 C-0.66 1.32 -1.32 2.64 -2 4 C-4.64 4 -7.28 4 -10 4 C-10.33 4.66 -10.66 5.32 -11 6 C-12.85546875 6.59765625 -12.85546875 6.59765625 -15.1875 7.0625 C-15.99445313 7.22621094 -16.80140625 7.38992187 -17.6328125 7.55859375 C-20.41643383 8.07765185 -23.20124943 8.56942299 -26 9 C-25 7 -25 7 -22.91455078 6.13037109 C-22.01720215 5.84758301 -21.11985352 5.56479492 -20.1953125 5.2734375 C-19.21949219 4.9640625 -18.24367187 4.6546875 -17.23828125 4.3359375 C-16.21089844 4.01882812 -15.18351563 3.70171875 -14.125 3.375 C-12.59552734 2.88773438 -12.59552734 2.88773438 -11.03515625 2.390625 C-3.41127232 0 -3.41127232 0 0 0 Z " fill="#323234" transform="translate(246,137)"/>
<path d="M0 0 C8.50216007 -0.8140366 14.99239238 0.95716082 21.703125 6.375 C23.5019192 8.11176681 24.87931089 9.75862178 26 12 C23.21384935 10.82124395 21.44433736 9.5168151 19.125 7.5 C14.24141842 3.35930739 9.0619034 2.75959152 2.85546875 2.34375 C1.93701172 2.17359375 1.93701172 2.17359375 1 2 C0.67 1.34 0.34 0.68 0 0 Z " fill="#2E2E30" transform="translate(30,56)"/>
<path d="M0 0 C1.39456452 0.00667256 2.78911118 0.01863093 4.18359375 0.03515625 C4.89451172 0.03966797 5.60542969 0.04417969 6.33789062 0.04882812 C8.09899388 0.06064761 9.86005411 0.07858362 11.62109375 0.09765625 C11.95109375 0.75765625 12.28109375 1.41765625 12.62109375 2.09765625 C7.67109375 2.09765625 2.72109375 2.09765625 -2.37890625 2.09765625 C-2.70890625 3.74765625 -3.03890625 5.39765625 -3.37890625 7.09765625 C-3.70890625 7.09765625 -4.03890625 7.09765625 -4.37890625 7.09765625 C-4.42144981 5.09810879 -4.41971408 3.09723989 -4.37890625 1.09765625 C-3.37890625 0.09765625 -3.37890625 0.09765625 0 0 Z " fill="#25252A" transform="translate(139.37890625,56.90234375)"/>
<path d="M0 0 C0.89203125 0.00902344 1.7840625 0.01804688 2.703125 0.02734375 C3.37859375 0.03894531 4.0540625 0.05054688 4.75 0.0625 C4.42 0.7225 4.09 1.3825 3.75 2.0625 C1.74609375 2.37109375 1.74609375 2.37109375 -0.8125 2.5 C-4.42733275 2.7748725 -7.3891359 3.32465419 -10.75 4.6875 C-11.905 5.14125 -13.06 5.595 -14.25 6.0625 C-14.91 5.7325 -15.57 5.4025 -16.25 5.0625 C-10.53555427 1.6558112 -6.74576384 -0.08876005 0 0 Z " fill="#2E2E30" transform="translate(93.25,55.9375)"/>
<path d="M0 0 C4.95 0 9.9 0 15 0 C15.33 0.66 15.66 1.32 16 2 C12.20732808 2.9360342 9.06325435 2.98276252 5.1875 2.5625 C4.21167969 2.46066406 3.23585937 2.35882813 2.23046875 2.25390625 C1.12638672 2.12822266 1.12638672 2.12822266 0 2 C0 1.34 0 0.68 0 0 Z " fill="#27272A" transform="translate(0,57)"/>
<path d="M0 0 C1.4540625 0.0309375 1.4540625 0.0309375 2.9375 0.0625 C2.9375 0.7225 2.9375 1.3825 2.9375 2.0625 C1.2875 2.0625 -0.3625 2.0625 -2.0625 2.0625 C-2.3925 3.0525 -2.7225 4.0425 -3.0625 5.0625 C-3.625 3.125 -3.625 3.125 -4.0625 1.0625 C-3.0625 0.0625 -3.0625 0.0625 0 0 Z " fill="#252526" transform="translate(181.0625,56.9375)"/>
</svg>
