<svg xmlns="http://www.w3.org/2000/svg" xmlns:xlink="http://www.w3.org/1999/xlink" width="1080" zoomAndPan="magnify" viewBox="0 0 810 1012.49997" height="1350" preserveAspectRatio="xMidYMid meet" version="1.0"><defs><clipPath id="a22de119ac"><path d="M 0.199219 0 L 809.800781 0 L 809.800781 1012 L 0.199219 1012 Z M 0.199219 0 " clip-rule="nonzero"/></clipPath><clipPath id="5d270b519a"><path d="M 136.164062 270.769531 L 674 270.769531 L 674 741.230469 L 136.164062 741.230469 Z M 136.164062 270.769531 " clip-rule="nonzero"/></clipPath><clipPath id="d9635aa587"><path d="M 136.164062 304.375 L 405 270.769531 L 673.835938 304.375 L 673.835938 707.628906 L 405 741.230469 L 136.164062 707.628906 Z M 136.164062 304.375 " clip-rule="nonzero"/></clipPath><clipPath id="ffeb9eb2a6"><path d="M 0.164062 0.769531 L 538 0.769531 L 538 471.230469 L 0.164062 471.230469 Z M 0.164062 0.769531 " clip-rule="nonzero"/></clipPath><clipPath id="afed1d78e4"><path d="M 0.164062 34.375 L 269 0.769531 L 537.835938 34.375 L 537.835938 437.628906 L 269 471.230469 L 0.164062 437.628906 Z M 0.164062 34.375 " clip-rule="nonzero"/></clipPath><clipPath id="b3f004410b"><rect x="0" width="538" y="0" height="472"/></clipPath></defs><g clip-path="url(#a22de119ac)"><path fill="#ffffff" d="M 0.199219 0 L 809.800781 0 L 809.800781 1012 L 0.199219 1012 Z M 0.199219 0 " fill-opacity="1" fill-rule="nonzero"/><path fill="#ffffff" d="M 0.199219 0 L 809.800781 0 L 809.800781 1012 L 0.199219 1012 Z M 0.199219 0 " fill-opacity="1" fill-rule="nonzero"/></g><g clip-path="url(#5d270b519a)"><g clip-path="url(#d9635aa587)"><g transform="matrix(1, 0, 0, 1, 136, 270)"><g clip-path="url(#b3f004410b)"><g clip-path="url(#ffeb9eb2a6)"><g clip-path="url(#afed1d78e4)"><path fill="#1a85fe" d="M 0.164062 0.769531 L 538.625 0.769531 L 538.625 471.230469 L 0.164062 471.230469 Z M 0.164062 0.769531 " fill-opacity="1" fill-rule="nonzero"/></g></g></g></g></g></g></svg>