<svg width="1003" height="1000" viewBox="0 0 1003 1000" fill="none" xmlns="http://www.w3.org/2000/svg">
<path d="M501.344 0L511.178 375.385L579.772 6.15582L530.603 378.454L656.268 24.4717L549.308 384.515L728.95 54.4967L566.832 393.42L796.027 95.4915L582.743 404.949L855.848 146.447L596.65 418.819L906.94 206.107L608.211 434.688L948.045 273.005L617.139 452.165L978.151 345.492L623.217 470.819L996.516 421.783L626.294 490.193L1002.69 500L626.294 509.807L996.516 578.217L623.217 529.181L978.151 654.508L617.139 547.835L948.045 726.995L608.211 565.312L906.94 793.893L596.65 581.181L855.848 853.553L582.743 595.051L796.027 904.508L566.832 606.58L728.95 945.503L549.308 615.485L656.268 975.528L530.603 621.546L579.772 993.844L511.178 624.615L501.344 1000L491.51 624.615L422.917 993.844L472.085 621.546L346.42 975.528L453.38 615.485L273.739 945.503L435.856 606.58L206.661 904.508L419.945 595.051L146.84 853.553L406.038 581.181L95.7482 793.893L394.478 565.312L54.6432 726.995L385.549 547.835L24.5375 654.508L379.471 529.181L6.17236 578.217L376.394 509.807L0 500L376.394 490.193L6.17236 421.783L379.471 470.819L24.5375 345.492L385.549 452.165L54.6432 273.005L394.478 434.688L95.7482 206.107L406.038 418.819L146.84 146.447L419.945 404.949L206.661 95.4915L435.856 393.42L273.739 54.4967L453.38 384.515L346.42 24.4717L472.085 378.454L422.917 6.15582L491.51 375.385L501.344 0Z" fill="#F4F4F4"/>
</svg>
